<?xml version="1.0" standalone="no"?>
<!DOCTYPE svg PUBLIC "-//W3C//DTD SVG 20010904//EN"
 "http://www.w3.org/TR/2001/REC-SVG-20010904/DTD/svg10.dtd">
<svg version="1.0" xmlns="http://www.w3.org/2000/svg"
 width="100.000000pt" height="100.000000pt" viewBox="0 0 100.000000 100.000000"
 preserveAspectRatio="xMidYMid meet">
<metadata>
Created by potrace 1.14, written by Peter Selinger 2001-2017
</metadata>
<g transform="translate(0.000000,100.000000) scale(0.100000,-0.100000)"
fill="#000000" stroke="none">
<path d="M383 955 c-83 -23 -152 -63 -214 -124 -268 -268 -124 -724 251 -793
84 -16 199 1 285 42 119 57 232 200 251 316 3 21 8 42 11 47 2 4 0 7 -5 7 -4
0 -19 -25 -31 -55 -12 -30 -40 -74 -62 -97 l-39 -43 2 110 c1 61 6 113 12 117
5 3 2 13 -7 23 -10 9 -17 23 -17 31 0 8 -4 14 -10 14 -5 0 -10 -4 -10 -8 0 -5
-9 -18 -20 -29 -17 -18 -17 -23 -5 -33 17 -14 21 -35 5 -25 -5 3 -10 -1 -10
-9 0 -8 3 -17 8 -20 4 -2 7 -42 7 -88 -1 -47 4 -86 10 -91 5 -4 -1 -5 -15 -4
-24 4 -25 7 -27 83 -2 43 -7 80 -12 82 -6 2 -7 10 -4 18 10 28 -8 65 -42 86
-24 14 -35 27 -35 43 0 13 -4 27 -10 30 -6 4 -10 -5 -10 -20 0 -27 -33 -64
-57 -65 -10 0 -10 6 -1 25 9 19 9 28 0 37 -16 16 -15 28 3 28 8 0 15 5 15 10
0 6 -3 10 -8 10 -4 0 -15 12 -23 27 l-17 26 -12 -24 c-7 -13 -18 -27 -24 -31
-8 -6 -6 -11 4 -18 12 -8 13 -13 3 -29 -8 -13 -9 -22 -3 -26 6 -3 10 -19 10
-36 0 -23 -4 -29 -21 -29 -15 0 -19 4 -15 16 3 9 3 21 -1 27 -4 7 -6 26 -4 43
2 27 -4 37 -38 65 -27 21 -41 40 -41 56 0 13 -4 23 -10 23 -5 0 -10 -13 -10
-29 0 -21 -6 -32 -20 -36 -33 -10 -70 -63 -61 -86 12 -35 1 -79 -20 -79 -22 0
-26 38 -9 71 7 13 7 19 0 19 -14 0 -13 27 2 32 9 3 8 9 -5 22 -9 10 -17 24
-17 32 0 23 -14 15 -37 -21 -15 -24 -18 -35 -9 -35 7 0 13 -7 13 -15 0 -8 -4
-15 -9 -15 -4 0 -8 -7 -8 -15 0 -8 4 -15 8 -15 5 0 9 -45 9 -101 l1 -100 -18
29 c-57 94 -70 242 -31 345 46 117 150 213 273 248 60 17 61 18 23 18 -22 0
-64 -7 -92 -14z m353 -758 c4 -3 -7 -9 -22 -13 -16 -4 -33 -9 -39 -13 -35 -20
-170 -18 -237 3 -32 10 -58 21 -58 25 0 8 348 6 356 -2z"/>
</g>
</svg>
